<?xml version="1.0" encoding="UTF-8"?>
<svg xmlns="http://www.w3.org/2000/svg" viewBox="0 0 64 64"><title>SaaS</title><g id="SaaS"><path d="M32,23.33A5.67,5.67,0,1,0,37.67,29,5.68,5.68,0,0,0,32,23.33Zm0,9.34A3.67,3.67,0,1,1,35.67,29,3.68,3.68,0,0,1,32,32.67Z"/><path d="M62,58.18V50a1,1,0,0,0-1-1H44V38.22L45.28,36H50a9,9,0,0,0,3-17.48A8,8,0,0,0,44.46,11,15,15,0,0,0,15,14a11,11,0,0,0,1,22h2.72L20,38.22V49H3a1,1,0,0,0-1,1v8.18a3,3,0,1,0,2,0V51H21a1,1,0,0,0,1-1V39.39l2.21-1.27c.25.21.52.42.79.61V54H18a1,1,0,0,0-1,1v3.18a3,3,0,1,0,2,0V56h7a1,1,0,0,0,1-1V39.9c.33.15.66.29,1,.41V43a1,1,0,0,0,1,1h2V58.18a3,3,0,1,0,2,0V44h2a1,1,0,0,0,1-1V40.31c.34-.12.67-.26,1-.41V55a1,1,0,0,0,1,1h7v2.18a3,3,0,1,0,2,0V55a1,1,0,0,0-1-1H39V38.73c.27-.19.54-.4.79-.61L42,39.39V50a1,1,0,0,0,1,1H60v7.18a3,3,0,1,0,2,0ZM3,62a1,1,0,0,1,0-2A1,1,0,0,1,3,62Zm15,0a1,1,0,0,1,0-2A1,1,0,0,1,18,62Zm14,0a1,1,0,0,1,0-2A1,1,0,0,1,32,62Zm14,0a1,1,0,0,1,0-2A1,1,0,0,1,46,62ZM16,34a9,9,0,0,1,0-18,1,1,0,0,0,1-1,13,13,0,0,1,25.72-2.68,1,1,0,0,0,1.15.79,6,6,0,0,1,7.13,6,1,1,0,0,0,.74,1.16A7,7,0,0,1,50,34c-4.11,0-3.59,0-3.51-.1a1,1,0,0,0-.37-1.36l-2.33-1.35a11.52,11.52,0,0,0,0-4.38l2.33-1.35a1,1,0,0,0,.37-1.36l-3-5.2a1,1,0,0,0-1.37-.36l-2.33,1.34A12.19,12.19,0,0,0,36,17.69V15a1,1,0,0,0-1-1H29a1,1,0,0,0-1,1v2.69a12.19,12.19,0,0,0-3.79,2.19l-2.33-1.34a1,1,0,0,0-1.37.36c-4,6.91-4.22,5.65-.3,7.91a11.52,11.52,0,0,0,0,4.38c-2.49,1.44-2.66,1.43-2.8,1.95C17.13,34.19,18.53,34,16,34Zm23,2.17C36,39,34,38.08,34,39.58V42H30c0-2.42.19-3.13-.73-3.39-3.95-1.12-4.13-3.34-5.43-2.59l-2.1,1.21-2-3.46c2.11-1.22,2.81-1.4,2.57-2.33a9.83,9.83,0,0,1,0-4.88c.25-1-.66-1.23-2.57-2.33l2-3.46L23.84,22c1.28.74,1.54-1.49,5.43-2.59.92-.26.73-1,.73-3.39h4v2.42c0,1.47,2.08.61,5,3.41.67.65,1.12.2,3.3-1.06l2,3.46C40.35,26.49,42,25.2,42,29s-1.66,2.5,2.26,4.77l-2,3.46C40.16,36,39.65,35.51,39,36.17ZM61,62a1,1,0,0,1,0-2A1,1,0,0,1,61,62Z"/></g></svg>
