<?xml version="1.0" encoding="UTF-8"?>
<svg xmlns="http://www.w3.org/2000/svg" viewBox="0 0 64 64"><title>User Acquisitions</title><g id="User_Acquisitions"><path d="M63,0H1A1,1,0,0,0,0,1V52a1,1,0,0,0,1,1H5.05A12,12,0,0,0,29,53h6.1A12,12,0,0,0,59,53h4a1,1,0,0,0,1-1V1A1,1,0,0,0,63,0ZM2,2H62V8H2ZM14,50V49a3,3,0,0,1,6,0v1a3,3,0,0,1-6,0ZM11.05,60l.32-1a5.94,5.94,0,0,1,11.26,0L23,60A9.93,9.93,0,0,1,11.05,60Zm13.51-1.5a7.91,7.91,0,0,0-4.27-4.79C22,52.2,22,50.54,22,49a5,5,0,0,0-10,0c0,1.64,0,3.21,1.71,4.73a7.88,7.88,0,0,0-4.27,4.79C4,52.26,8.27,42,17,42A10,10,0,0,1,24.56,58.52ZM32,16a10,10,0,0,1,7.56,16.52,7.9,7.9,0,0,0-4.27-4.79C37,26.2,37,24.54,37,23a5,5,0,0,0-10,0c0,1.64,0,3.21,1.71,4.73a7.91,7.91,0,0,0-4.27,4.79A10,10,0,0,1,32,16ZM26.14,34.1c-.14-.1-.14.06.23-1a5.94,5.94,0,0,1,11.26,0c.37,1.09.37.94.23,1A10,10,0,0,1,26.14,34.1ZM29,24V23a3,3,0,0,1,6,0v1a3,3,0,0,1-6,0Zm8.36,12.72,3,5.32a12,12,0,0,0-5.27,9H29a12,12,0,0,0-5.27-9l3-5.32A11.87,11.87,0,0,0,37.36,36.72ZM44,50V49a3,3,0,0,1,6,0v1a3,3,0,0,1-6,0Zm-3,10,.32-1a5.94,5.94,0,0,1,11.26,0L53,60A9.93,9.93,0,0,1,41.05,60Zm13.51-1.5a7.91,7.91,0,0,0-4.27-4.79C52,52.2,52,50.54,52,49a5,5,0,0,0-10,0c0,1.64,0,3.21,1.71,4.73a7.88,7.88,0,0,0-4.27,4.79A10,10,0,0,1,47,42C55.74,42,60,52.27,54.56,58.52ZM59,51a12,12,0,0,0-16.87-9.93l-3-5.38C48.44,28.86,43.55,14,32,14S15.54,28.84,24.92,35.69l-3,5.38A12,12,0,0,0,5.05,51H2V10H62V51Z"/><path d="M6,4A1,1,0,0,0,6,6,1,1,0,0,0,6,4Z"/><path d="M11,4a1,1,0,0,0,0,2A1,1,0,0,0,11,4Z"/><path d="M16,4a1,1,0,0,0,0,2A1,1,0,0,0,16,4Z"/></g></svg>
