<?xml version="1.0" encoding="UTF-8"?>
<svg xmlns="http://www.w3.org/2000/svg" viewBox="0 0 64 64"><title>Development</title><g id="Development"><path d="M63,4H35V1a1,1,0,0,0-2,0V4H1A1,1,0,0,0,0,5V59a1,1,0,0,0,1,1H33v3a1,1,0,0,0,2,0V60H63a1,1,0,0,0,1-1V5A1,1,0,0,0,63,4ZM62,6v6H35V6ZM2,6H33v6H2ZM2,58V14H33V58Zm33,0V14H62V58Z"/><path d="M6,8a1,1,0,0,0,0,2A1,1,0,0,0,6,8Z"/><path d="M11,8a1,1,0,0,0,0,2A1,1,0,0,0,11,8Z"/><path d="M16,8a1,1,0,0,0,0,2A1,1,0,0,0,16,8Z"/><path d="M29,17H6a1,1,0,0,0-1,1v9a1,1,0,0,0,1,1H29a1,1,0,0,0,1-1V18A1,1,0,0,0,29,17Zm-1,9H7V19H28Z"/><path d="M26.5,31A3.5,3.5,0,1,0,30,34.5,3.5,3.5,0,0,0,26.5,31Zm0,5a1.5,1.5,0,0,1,0-3A1.5,1.5,0,0,1,26.5,36Z"/><path d="M17.5,38A3.5,3.5,0,1,0,14,34.5,3.5,3.5,0,0,0,17.5,38Zm0-5a1.5,1.5,0,0,1,0,3A1.5,1.5,0,0,1,17.5,33Z"/><path d="M8.5,38A3.5,3.5,0,1,0,5,34.5,3.5,3.5,0,0,0,8.5,38Zm0-5a1.5,1.5,0,0,1,0,3A1.5,1.5,0,0,1,8.5,33Z"/><path d="M29,40H24a1,1,0,0,0,0,2h5A1,1,0,0,0,29,40Z"/><path d="M29,44H24a1,1,0,0,0,0,2h5A1,1,0,0,0,29,44Z"/><path d="M15,42h5a1,1,0,0,0,0-2H15A1,1,0,0,0,15,42Z"/><path d="M15,46h5a1,1,0,0,0,0-2H15A1,1,0,0,0,15,46Z"/><path d="M6,42h5a1,1,0,0,0,0-2H6A1,1,0,0,0,6,42Z"/><path d="M6,46h5a1,1,0,0,0,0-2H6A1,1,0,0,0,6,46Z"/><path d="M29,49H6a1,1,0,0,0-1,1v4a1,1,0,0,0,1,1H29a1,1,0,0,0,1-1V50A1,1,0,0,0,29,49Zm-1,4H7V51H28Z"/><path d="M41.29,26.71a1,1,0,0,0,1.42-1.42L39.41,22l3.3-3.29a1,1,0,0,0-1.42-1.42l-4,4a1,1,0,0,0,0,1.42Z"/><path d="M55.71,17.29a1,1,0,0,0-1.42,1.42L57.59,22l-3.3,3.29A1,1,0,0,0,55,27c.56,0,.3.12,4.71-4.29a1,1,0,0,0,0-1.42Z"/><path d="M46.85,26.53l5-8a1,1,0,0,0-1.7-1.06l-5,8A1,1,0,0,0,46.85,26.53Z"/><path d="M59,31H38a1,1,0,0,0,0,2H59A1,1,0,0,0,59,31Z"/><path d="M38,38H52a1,1,0,0,0,0-2H38A1,1,0,0,0,38,38Z"/><path d="M38,43H56a1,1,0,0,0,0-2H38A1,1,0,0,0,38,43Z"/><path d="M59,46H38a1,1,0,0,0,0,2H59A1,1,0,0,0,59,46Z"/><path d="M54,51H38a1,1,0,0,0,0,2H54A1,1,0,0,0,54,51Z"/></g></svg>
